<?xml version="1.0" standalone="no"?>
<!DOCTYPE svg PUBLIC "-//W3C//DTD SVG 20010904//EN"
 "http://www.w3.org/TR/2001/REC-SVG-20010904/DTD/svg10.dtd">
<svg version="1.0" xmlns="http://www.w3.org/2000/svg"
 width="900.000000pt" height="250.000000pt" viewBox="0 0 900.000000 250.000000"
 preserveAspectRatio="xMidYMid meet">

<g transform="translate(0.000000,250.000000) scale(0.100000,-0.100000)"
fill="#000000" stroke="none">
<path d="M500 2052 c-164 -55 -251 -184 -251 -374 -1 -105 25 -178 86 -246 62
-68 137 -101 368 -161 216 -56 299 -91 345 -147 90 -109 57 -298 -68 -385
-132 -92 -353 -90 -515 6 -39 22 -47 36 -115 184 -56 121 -78 161 -92 161 -17
0 -18 -15 -18 -220 0 -188 2 -220 15 -220 8 0 48 16 88 36 l74 37 89 -38 c83
-36 97 -39 205 -43 161 -6 249 21 338 102 81 75 115 168 114 311 -2 165 -42
259 -138 325 -57 39 -85 49 -332 115 -219 59 -265 77 -317 129 -68 69 -69 194
-3 293 82 122 293 157 497 82 l56 -20 62 -124 c48 -98 66 -125 82 -125 19 0
20 7 20 170 l0 170 -23 0 c-13 0 -51 -11 -84 -24 l-60 -25 -64 21 c-93 30
-284 35 -359 10z"/>
<path d="M3070 1395 c0 -442 3 -664 10 -660 7 4 10 235 10 660 0 425 -3 656
-10 660 -7 4 -10 -218 -10 -660z"/>
<path d="M1340 2021 c0 -15 10 -20 53 -25 28 -4 62 -10 75 -13 l22 -5 0 -624
0 -624 -22 -5 c-13 -2 -45 -8 -73 -13 -35 -5 -51 -12 -53 -25 -3 -16 15 -17
247 -17 211 0 251 2 251 14 0 16 -14 21 -80 31 -88 13 -80 -23 -80 336 l0 319
330 0 330 0 0 -314 c0 -239 -3 -317 -12 -322 -7 -5 -42 -13 -78 -19 -48 -8
-66 -15 -68 -28 -3 -16 15 -17 247 -17 211 0 251 2 251 14 0 16 -14 21 -80 31
-25 4 -53 9 -62 11 -17 5 -18 44 -18 629 l0 623 23 5 c12 3 48 9 80 12 47 6
57 11 57 26 0 18 -12 19 -250 19 -238 0 -250 -1 -250 -19 0 -15 10 -20 57 -26
31 -4 67 -11 80 -16 l23 -9 -2 -277 -3 -278 -325 0 -325 0 -3 282 -2 282 32 6
c18 3 53 9 78 13 31 5 46 13 48 25 3 16 -15 17 -247 17 -239 0 -251 -1 -251
-19z"/>
<path d="M3435 1918 c-3 -7 -4 -251 -3 -543 l3 -530 80 0 80 0 3 263 2 262
245 0 245 0 0 -265 c0 -229 2 -265 15 -265 13 0 15 67 15 545 0 475 -2 545
-15 545 -13 0 -15 -38 -17 -262 l-3 -263 -242 -3 -243 -2 -2 262 -3 263 -78 3
c-56 2 -79 -1 -82 -10z m125 -268 l0 -250 -45 0 -45 0 0 250 0 250 45 0 45 0
0 -250z m0 -525 l0 -245 -45 0 -45 0 0 245 0 245 45 0 45 0 0 -245z"/>
<path d="M4607 1923 c-10 -17 -327 -1053 -327 -1067 0 -13 13 -16 74 -16 47 0
77 4 83 12 5 7 60 184 122 393 62 209 116 386 120 393 4 7 62 -164 130 -385
68 -219 127 -402 132 -408 6 -6 12 -6 18 0 6 6 -40 170 -124 442 l-134 431 30
98 c34 113 34 117 13 112 -10 -2 -24 -29 -38 -73 -12 -38 -24 -65 -27 -60 -3
6 -14 38 -24 73 -16 55 -35 77 -48 55z m52 -208 c0 -11 -55 -202 -122 -425
l-123 -405 -48 -3 c-42 -3 -47 -1 -42 15 27 90 288 932 293 943 6 16 43 -91
42 -125z"/>
<path d="M5120 1925 c0 -12 323 -1050 332 -1067 16 -32 27 -19 51 60 l24 77
24 -74 c13 -41 30 -76 37 -79 18 -6 15 22 -15 125 l-27 92 39 123 c20 68 40
127 43 132 3 5 38 -99 79 -230 40 -131 76 -240 79 -243 2 -2 9 0 15 6 10 10
339 1054 339 1076 0 5 -7 7 -16 5 -12 -2 -52 -116 -150 -433 -74 -236 -144
-461 -155 -499 -14 -48 -24 -65 -29 -55 -4 7 -38 112 -74 231 l-67 216 81 261
c44 143 80 264 80 270 0 6 -6 11 -14 11 -14 0 -26 -35 -122 -347 -21 -68 -40
-123 -43 -123 -3 0 -19 42 -34 93 -95 311 -118 377 -132 377 -8 0 -15 -5 -15
-10 0 -6 37 -128 81 -272 l82 -261 -38 -121 c-20 -66 -40 -125 -44 -129 -4 -4
-61 171 -127 390 l-120 398 -82 3 c-45 2 -82 0 -82 -3z m263 -448 l127 -424
-21 -62 c-12 -34 -23 -60 -25 -58 -3 2 -70 215 -149 473 -80 258 -147 475
-150 482 -3 8 9 12 43 12 l48 0 127 -423z"/>
<path d="M6627 1923 c-12 -18 -327 -1046 -327 -1064 0 -17 8 -19 75 -19 61 0
76 3 83 18 5 9 60 188 122 397 62 209 116 383 119 387 3 4 62 -174 131 -394
111 -355 150 -458 150 -390 0 11 -59 209 -130 441 l-131 421 31 101 c17 55 29
103 26 106 -15 15 -35 -13 -51 -71 -10 -37 -21 -64 -24 -60 -3 3 -15 33 -27
67 -19 58 -36 78 -47 60z m37 -139 l19 -66 -125 -416 -126 -417 -47 -3 c-37
-3 -46 0 -43 12 10 46 294 956 298 956 3 0 14 -30 24 -66z"/>
<path d="M7142 1388 l3 -543 78 -3 77 -3 0 211 0 210 123 0 122 0 130 -210
c71 -116 133 -210 137 -210 25 0 5 43 -106 224 -70 112 -126 206 -126 208 0 3
12 9 28 12 46 11 130 76 162 124 115 173 56 394 -132 494 -41 22 -55 23 -271
26 l-227 3 2 -543z m127 450 c0 -62 0 -63 -17 -39 -9 13 -27 42 -40 63 l-23
38 40 0 41 0 -1 -62z m321 45 c70 -23 150 -96 180 -165 66 -152 -6 -328 -161
-397 -24 -11 -46 -18 -50 -16 -3 3 -63 96 -133 208 l-126 204 0 92 0 91 119 0
c84 0 134 -5 171 -17z m-366 -107 l46 -74 0 -201 0 -201 -50 0 -50 0 0 275 c0
151 2 275 4 275 2 0 25 -33 50 -74z m142 -229 c28 -45 74 -119 102 -164 l52
-83 -110 0 -110 0 0 165 c0 91 3 165 8 165 4 0 30 -37 58 -83z m-96 -477 l0
-190 -50 0 -50 0 0 190 0 190 50 0 50 0 0 -190z"/>
<path d="M7987 1923 c-2 -5 69 -150 159 -323 l163 -315 3 -220 c3 -188 5 -220
18 -220 13 0 16 34 20 225 4 190 8 230 23 258 10 17 20 32 22 32 3 0 16 -22
30 -50 14 -27 29 -50 35 -50 23 0 19 25 -13 83 l-35 62 129 249 c71 138 129
256 129 263 0 46 -41 -16 -149 -227 -67 -132 -124 -240 -126 -240 -2 0 -59
108 -127 240 l-123 240 -77 0 c-42 0 -79 -3 -81 -7z m166 -85 c19 -35 76 -145
127 -246 l93 -183 -22 -46 c-12 -25 -23 -44 -25 -42 -1 2 -69 133 -149 292
l-147 287 44 0 c44 0 45 -1 79 -62z"/>
</g>
</svg>
